<svg width="1986" height="512" viewBox="0 0 1986 512" fill="none" xmlns="http://www.w3.org/2000/svg">
    <g clip-path="url(#clip0_830_244)">
        <path d="M256 0C51.2 0 0 51.2 0 256C0 460.8 51.2 512 256 512C460.8 512 512 460.8 512 256C512 51.2 460.8 0 256 0Z" fill="black"/>
        <path d="M381.631 89.1023L156.848 226.934C155.078 228.035 153.409 229.587 152.004 231.439C150.598 233.291 149.504 235.379 148.827 237.501C148.154 239.563 147.952 241.585 148.243 243.331C148.531 244.989 149.32 246.277 150.5 247.017L248.786 279.495L126.586 417.071C125.97 417.905 125.516 418.85 125.28 419.791C125.046 420.686 125.06 421.533 125.32 422.195C125.566 422.883 126.013 423.288 126.661 423.409C127.301 423.534 128.048 423.37 128.788 422.941L353.583 285.091C355.353 283.989 357.021 282.437 358.427 280.585C359.832 278.733 360.927 276.645 361.604 274.524C362.27 272.467 362.468 270.452 362.175 268.711C361.893 267.048 361.109 265.754 359.93 265.007L272.799 220.478L383.845 94.953C384.46 94.1196 384.914 93.1743 385.151 92.2337C385.384 91.338 385.37 90.4918 385.111 89.8295C384.854 89.1965 384.384 88.7707 383.77 88.6152C383.129 88.49 382.37 88.6731 381.631 89.1023Z" stroke="white" stroke-width="24"/>
    </g>
    <path d="M746.275 121C767.808 121 786.225 124.683 801.525 132.05C816.825 139.133 828.583 149.475 836.8 163.075C845.3 176.392 849.55 192.542 849.55 211.525C849.55 230.508 845.3 246.8 836.8 260.4C828.583 273.717 816.825 284.058 801.525 291.425C786.225 298.508 767.808 302.05 746.275 302.05H687.2V401.5H628.55V121H746.275ZM737.35 255.725C754.917 255.725 768.092 252.042 776.875 244.675C785.658 237.025 790.05 225.975 790.05 211.525C790.05 196.792 785.658 185.742 776.875 178.375C768.092 171.008 754.917 167.325 737.35 167.325H687.2V255.725H737.35ZM1009.98 265.925C1009.98 253.742 1006.44 244.25 999.356 237.45C992.556 230.65 983.489 227.25 972.156 227.25C961.673 227.25 952.464 229.942 944.531 235.325C936.598 240.708 930.789 249.633 927.106 262.1L877.381 246.8C882.198 228.1 892.681 213.083 908.831 201.75C925.264 190.417 947.223 184.75 974.706 184.75C993.406 184.75 1009.7 187.725 1023.58 193.675C1037.46 199.342 1048.23 207.983 1055.88 219.6C1063.81 231.217 1067.78 245.808 1067.78 263.375V349.65C1067.78 360.417 1072.88 365.8 1083.08 365.8C1087.9 365.8 1092.43 365.092 1096.68 363.675L1093.28 399.8C1085.91 403.483 1076.71 405.325 1065.66 405.325C1055.74 405.325 1046.81 403.625 1038.88 400.225C1030.95 396.825 1024.71 391.725 1020.18 384.925C1015.65 377.842 1013.38 369.058 1013.38 358.575V356.875L1023.58 355.175C1021.88 365.942 1017.21 375.15 1009.56 382.8C1001.91 390.167 992.556 395.833 981.506 399.8C970.739 403.767 959.548 405.75 947.931 405.75C933.481 405.75 921.014 403.625 910.531 399.375C900.048 394.842 891.973 388.325 886.306 379.825C880.639 371.325 877.806 360.842 877.806 348.375C877.806 332.508 882.906 319.617 893.106 309.7C903.306 299.5 917.898 292.558 936.881 288.875L1016.78 272.725L1016.36 308.85L965.356 319.05C955.723 321.033 948.356 323.725 943.256 327.125C938.439 330.242 936.031 335.483 936.031 342.85C936.031 349.933 938.581 355.317 943.681 359C949.064 362.683 955.439 364.525 962.806 364.525C968.756 364.525 974.564 363.817 980.231 362.4C985.898 360.983 990.998 358.717 995.531 355.6C1000.06 352.483 1003.61 348.233 1006.16 342.85C1008.71 337.467 1009.98 330.95 1009.98 323.3V265.925ZM1220.04 184.75C1239.03 184.75 1255.04 187.583 1268.07 193.25C1281.39 198.633 1292.01 206.142 1299.94 215.775C1308.16 225.125 1313.97 235.608 1317.37 247.225L1262.97 266.775C1260.14 254.025 1255.32 244.392 1248.52 237.875C1241.72 231.358 1232.51 228.1 1220.89 228.1C1210.13 228.1 1200.92 230.65 1193.27 235.75C1185.62 240.567 1179.81 248.075 1175.84 258.275C1171.88 268.192 1169.89 280.658 1169.89 295.675C1169.89 310.692 1171.88 323.158 1175.84 333.075C1180.09 342.992 1186.04 350.358 1193.69 355.175C1201.63 359.992 1210.84 362.4 1221.32 362.4C1229.82 362.4 1237.04 360.983 1242.99 358.15C1248.94 355.033 1253.76 350.642 1257.44 344.975C1261.41 339.308 1264.1 332.508 1265.52 324.575L1318.22 341.575C1315.1 354.325 1309.29 365.517 1300.79 375.15C1292.29 384.783 1281.39 392.292 1268.07 397.675C1254.75 403.058 1239.31 405.75 1221.74 405.75C1199.93 405.75 1180.66 401.358 1163.94 392.575C1147.23 383.792 1134.34 371.183 1125.27 354.75C1116.2 338.317 1111.67 318.483 1111.67 295.25C1111.67 272.017 1116.2 252.183 1125.27 235.75C1134.34 219.317 1147.09 206.708 1163.52 197.925C1179.95 189.142 1198.79 184.75 1220.04 184.75ZM1453.56 405.75C1431.18 405.75 1411.63 401.358 1394.91 392.575C1378.48 383.792 1365.73 371.183 1356.66 354.75C1347.59 338.317 1343.06 318.483 1343.06 295.25C1343.06 272.017 1347.59 252.183 1356.66 235.75C1365.73 219.317 1378.34 206.708 1394.49 197.925C1410.92 189.142 1429.62 184.75 1450.59 184.75C1472.12 184.75 1490.39 189.142 1505.41 197.925C1520.43 206.425 1531.9 218.183 1539.84 233.2C1547.77 247.933 1551.74 264.792 1551.74 283.775C1551.74 289.442 1551.59 294.825 1551.31 299.925C1551.03 305.025 1550.6 309.558 1550.04 313.525H1380.46V273.15H1524.54L1496.49 283.35C1496.49 265.5 1492.38 251.758 1484.16 242.125C1476.23 232.492 1464.89 227.675 1450.16 227.675C1439.39 227.675 1430.04 230.225 1422.11 235.325C1414.46 240.425 1408.65 248.075 1404.69 258.275C1400.72 268.192 1398.74 280.8 1398.74 296.1C1398.74 311.117 1400.86 323.583 1405.11 333.5C1409.64 343.133 1415.88 350.358 1423.81 355.175C1432.03 359.992 1441.8 362.4 1453.14 362.4C1465.6 362.4 1475.66 359.992 1483.31 355.175C1490.96 350.358 1496.91 343.7 1501.16 335.2L1547.49 353.05C1542.95 364.1 1536.01 373.592 1526.66 381.525C1517.59 389.458 1506.69 395.55 1493.94 399.8C1481.47 403.767 1468.01 405.75 1453.56 405.75ZM1831.04 121V291C1831.04 329.25 1820.84 358.008 1800.44 377.275C1780.04 396.258 1750.29 405.75 1711.19 405.75C1672.09 405.75 1642.34 396.258 1621.94 377.275C1601.54 358.008 1591.34 329.25 1591.34 291V121H1649.99V288.45C1649.99 311.967 1654.95 329.392 1664.87 340.725C1675.07 352.058 1690.51 357.725 1711.19 357.725C1731.88 357.725 1747.18 352.058 1757.09 340.725C1767.01 329.392 1771.97 311.967 1771.97 288.45V121H1831.04ZM1948.75 121V401.5H1890.1V121H1948.75Z" fill="black"/>
    <defs>
        <clipPath id="clip0_830_244">
            <rect width="512" height="512" fill="white"/>
        </clipPath>
    </defs>
</svg>
